<svg xmlns="http://www.w3.org/2000/svg" viewBox="0 0 512 512"><defs><linearGradient id="bg" x1="0" y1="0" x2="1" y2="1"><stop stop-color="#fff"/><stop offset="1" stop-color="#d7fff0"/></linearGradient><linearGradient id="g" x1="0" y1="0" x2="1" y2="1"><stop stop-color="#16e0a2"/><stop offset="1" stop-color="#00a98f"/></linearGradient></defs><rect x="20" y="20" width="472" height="472" rx="105" fill="url(#bg)" stroke="#15dca1" stroke-width="8"/><path d="M125 190h262l28 185H97z" fill="#fff" stroke="#08aa88" stroke-width="9"/><path d="M155 190c12-75 190-75 202 0" fill="none" stroke="url(#g)" stroke-width="28" stroke-linecap="round"/><path d="M160 285c40 50 151 51 210-6" fill="none" stroke="url(#g)" stroke-width="30" stroke-linecap="round"/><path d="M181 246q0-38 38-38h74q38 0 38 38v46h-150z" fill="url(#g)"/><circle cx="226" cy="250" r="8" fill="#fff"/><circle cx="286" cy="250" r="8" fill="#fff"/><path d="M213 208l-16-19M299 208l16-19" stroke="#17dca0" stroke-width="9" stroke-linecap="round"/><circle cx="350" cy="322" r="48" fill="url(#g)" stroke="#fff" stroke-width="9"/><path d="M350 296v31m-14-14 14 14 14-14M330 341h40" fill="none" stroke="#fff" stroke-width="9" stroke-linecap="round" stroke-linejoin="round"/><text x="256" y="429" text-anchor="middle" font-family="Arial,sans-serif" font-size="45" font-weight="900" fill="#172534">Palia<tspan fill="#16bd72">APK</tspan> Hub</text><text x="256" y="458" text-anchor="middle" font-family="Arial,sans-serif" font-size="11" font-weight="700" letter-spacing="4" fill="#63717d">APPS · GAMES · TOOLS · MORE</text></svg>